<?xml version="1.0" encoding="utf-8"?>
<!-- Generator: Adobe Illustrator 23.0.6, SVG Export Plug-In . SVG Version: 6.00 Build 0)  -->
<svg version="1.1" id="Ebene_1" xmlns="http://www.w3.org/2000/svg" xmlns:xlink="http://www.w3.org/1999/xlink" x="0px" y="0px"
	 viewBox="0 0 204.51 204.61" style="enable-background:new 0 0 204.51 204.61;" xml:space="preserve">
<style type="text/css">
	.st0{fill:#7DC900;}
</style>
<path class="st0" d="M124.33,201.88c-2.33-31.74,2.95-62,16.15-90.81c3.55-7.75,7.52-15.32,11.08-23.07
	c2.14-4.67,3.74-9.59,3.41-14.84c-0.38-5.97-4.42-8.36-9.95-6.07c-0.26,0.11-0.53,0.18-1.01,0.34c0.26-2.67,0.52-5.21,0.75-7.75
	c0.43-4.71,0.37-9.41-1.02-13.98c-2.1-6.91-7.52-9.33-14.01-6.18c-5.85,2.84-10.26,7.46-14.13,12.51
	c-3.59,4.68-6.97,9.56-10.05,14.59c-1.39,2.28-2.92,2.99-5.42,3.1c-8.36,0.39-16.29,2.45-23.56,6.73
	c-9.15,5.4-15.11,13.53-19.29,23.04c-1.04,2.36-2.43,2.94-4.76,3.21c-8.98,1.05-16.99,4.19-22.67,11.69
	c-2.78,3.68-4.17,7.91-4.3,12.52c-0.09,3.15,1.21,4.44,4.31,4.45c4.71,0.02,9.41,0.01,14.12,0.02c0.14,0,0.28,0.04,0.93,0.13
	c-9.94,10.44-17.02,22.32-21.17,36c-25.2-28.85-33.88-77.75-8.51-119.1C40.23,7.71,91.54-10.32,136.62,5.96
	c46.32,16.73,72.41,62.22,67.25,107.44C197.96,165.08,157.87,195.63,124.33,201.88z"/>
<path class="st0" d="M147.41,73.84c-0.56,7.09-2.66,13.45-6.02,19.36c-7.28,12.8-12.64,26.4-16.94,40.44
	c-5.57,18.19-8,36.82-7.76,55.82c0.06,4.62,0.01,9.25,0.01,13.98c-7.01,1.21-13.98,1.41-20.93,0.93
	c-14.59-1.01-28.42-4.83-41.37-11.71c-8.81-4.68-16.74-10.54-23.9-17.48c-1-0.97-0.86-1.81-0.59-2.83
	c3.87-14.78,11.32-27.42,22.53-37.83c1.3-1.21,2.65-2.39,4.05-3.48c1.53-1.2,2.15-2.7,1.53-4.51c-0.62-1.79-2.16-2.34-3.93-2.34
	c-6.13-0.01-12.27,0-18.4,0c-0.76,0-1.52,0-2.47,0c0.96-3.99,3.1-6.83,6.06-9.09c5.01-3.81,10.83-5.42,16.98-5.46
	c3.4-0.02,5.12-1.26,6.33-4.38c2.3-5.93,5.42-11.45,9.75-16.2c6.07-6.67,13.77-10.2,22.54-11.54c3.3-0.51,6.66-0.75,9.99-0.83
	c2.19-0.05,3.56-0.84,4.62-2.74c4.41-7.85,9.3-15.38,15.65-21.82c2.04-2.07,4.28-4,6.68-5.62c3.09-2.09,4.8-1.4,5.29,2.3
	c0.49,3.72,0.69,7.55,0.37,11.28c-0.44,5.16-1.44,10.28-2.27,15.4c-0.31,1.89,0.09,3.47,1.83,4.37c1.74,0.91,3.23,0.3,4.62-1.02
	C143.51,77.08,145.49,75.49,147.41,73.84z"/>
</svg>
