<?xml version="1.0" encoding="UTF-8"?>
<svg id="Ebene_1" xmlns="http://www.w3.org/2000/svg" version="1.1" viewBox="0 0 507.64 117.51">
  <!-- Generator: Adobe Illustrator 29.6.1, SVG Export Plug-In . SVG Version: 2.1.1 Build 9)  -->
  <defs>
    <style>
      .st0 {
        fill: #81bb27;
      }

      .st1 {
        fill: #fff;
      }
    </style>
  </defs>
  <g>
    <path class="st0" d="M18.11,1.62v6.99c1.51-.96,3.15-1.94,4.93-2.96,1.77-1.02,3.7-1.94,5.79-2.78s4.32-1.52,6.71-2.06c2.39-.54,4.98-.81,7.75-.81s5.09.29,7.13.86c2.04.57,3.8,1.31,5.3,2.22,1.5.91,2.77,1.93,3.82,3.05,1.05,1.13,1.96,2.25,2.73,3.36,2.19-1.42,4.35-2.71,6.48-3.89,2.13-1.17,4.27-2.18,6.43-3.01,2.16-.83,4.37-1.47,6.62-1.92,2.25-.45,4.6-.67,7.04-.67,3.89,0,7.37.54,10.44,1.62,3.07,1.08,5.67,2.56,7.8,4.44,2.13,1.88,3.76,4.1,4.88,6.64,1.13,2.55,1.69,5.27,1.69,8.17v44.34h-17.17V23.33c0-1.7-.26-3.16-.79-4.4-.53-1.23-1.23-2.24-2.11-3.01-.88-.77-1.91-1.34-3.1-1.71-1.19-.37-2.45-.56-3.77-.56-6.17,0-13.21,2.78-21.11,8.33.09.52.16,1.14.21,1.85.05.71.07,1.42.07,2.13v39.25h-17.17V22.96c0-1.7-.26-3.14-.79-4.33-.53-1.19-1.24-2.15-2.15-2.89-.91-.74-1.96-1.27-3.15-1.6-1.19-.32-2.45-.49-3.77-.49-1.6,0-3.29.23-5.07.69s-3.56,1.11-5.37,1.94-3.58,1.82-5.32,2.96c-1.74,1.14-3.4,2.38-4.98,3.7v42.26H.94V1.62h17.17Z"/>
    <path class="st0" d="M187.2,65.22v-6.25c-2.19,1.2-4.54,2.27-7.06,3.19-2.52.93-5.13,1.71-7.85,2.36-2.72.65-5.52,1.13-8.4,1.46-2.89.32-5.79.49-8.73.49-3.43,0-6.73-.32-9.93-.97s-6.03-1.7-8.49-3.15c-2.47-1.45-4.45-3.35-5.95-5.69-1.5-2.34-2.25-5.21-2.25-8.61,0-4.29,1.17-7.86,3.52-10.72,2.34-2.85,5.92-5.19,10.74-7.01,4.81-1.82,10.9-3.22,18.26-4.21,7.36-.99,16.07-1.76,26.13-2.31v-1.34c0-1.05-.28-2.09-.83-3.12-.56-1.03-1.57-1.94-3.03-2.73-1.47-.79-3.47-1.43-6.02-1.92-2.55-.49-5.79-.74-9.74-.74-3.12,0-6.2.16-9.23.49-3.04.32-5.97.76-8.79,1.32-2.82.56-5.5,1.2-8.03,1.94-2.53.74-4.83,1.51-6.9,2.31V4.72c2.16-.56,4.58-1.1,7.27-1.62,2.69-.52,5.48-.98,8.38-1.37,2.9-.39,5.83-.69,8.79-.93s5.8-.35,8.52-.35c5.34,0,10.26.44,14.77,1.32,4.5.88,8.39,2.25,11.64,4.1,3.26,1.85,5.8,4.2,7.64,7.04,1.84,2.84,2.75,6.22,2.75,10.14v42.17h-17.17ZM187.2,36.2c-6.6.25-12.21.6-16.83,1.06-4.61.46-8.45,1-11.5,1.62-3.06.62-5.45,1.28-7.2,1.99-1.74.71-3.05,1.44-3.91,2.18-.86.74-1.4,1.48-1.6,2.22-.2.74-.3,1.42-.3,2.04,0,.74.2,1.46.6,2.15.4.69,1.1,1.3,2.11,1.83,1,.53,2.34.94,4,1.25,1.67.31,3.76.46,6.3.46,2.81,0,5.55-.22,8.24-.65,2.68-.43,5.23-1.03,7.64-1.78,2.41-.76,4.67-1.65,6.78-2.68,2.11-1.03,4-2.14,5.67-3.31v-8.38Z"/>
    <path class="st0" d="M280.49,15.39c-.88-.26-1.91-.52-3.08-.79-1.17-.26-2.46-.49-3.87-.67-1.4-.19-2.85-.28-4.33-.28-3.09,0-5.96.38-8.63,1.13-2.67.76-5.16,1.76-7.48,3.01-2.31,1.25-4.47,2.67-6.46,4.26-1.99,1.59-3.82,3.22-5.48,4.88v38.28h-17.17V1.62h17.17v10.32c2.07-1.54,4.19-3.03,6.36-4.47,2.18-1.43,4.44-2.71,6.8-3.82,2.36-1.11,4.85-2,7.48-2.66,2.62-.66,5.4-1,8.33-1,1.11,0,2.25.05,3.4.16,1.16.11,2.28.24,3.38.39,1.09.15,2.12.32,3.08.51.96.19,1.79.37,2.5.56v14.4c-.46-.15-1.13-.36-2.01-.62Z"/>
    <path class="st0" d="M356.75,63.37c-2.25.74-4.58,1.38-6.99,1.92-2.41.54-4.95.95-7.61,1.23-2.67.28-5.53.42-8.59.42-6.48,0-12.44-.69-17.89-2.08-5.45-1.39-10.14-3.48-14.07-6.27-3.93-2.79-7-6.28-9.19-10.46-2.19-4.18-3.29-9.06-3.29-14.65s1.09-10.47,3.29-14.65c2.19-4.18,5.25-7.67,9.19-10.46,3.93-2.79,8.62-4.88,14.07-6.27,5.45-1.39,11.41-2.08,17.89-2.08,3.06,0,5.92.14,8.59.42,2.67.28,5.21.69,7.61,1.23,2.41.54,4.74,1.18,6.99,1.92,2.25.74,4.49,1.57,6.71,2.5v15.46c-1.76-.96-3.61-1.9-5.55-2.85-1.94-.94-4.09-1.79-6.43-2.55-2.34-.76-4.92-1.37-7.73-1.85-2.81-.48-5.97-.72-9.49-.72-5.4,0-9.88.56-13.45,1.67s-6.41,2.59-8.54,4.44-3.63,3.97-4.49,6.36c-.86,2.39-1.3,4.87-1.3,7.43,0,1.7.19,3.37.56,5.02.37,1.65.99,3.21,1.85,4.67.86,1.47,1.99,2.82,3.38,4.05,1.39,1.23,3.12,2.3,5.18,3.19,2.07.9,4.48,1.6,7.24,2.11,2.76.51,5.95.76,9.56.76s6.68-.22,9.49-.67c2.81-.45,5.38-1.04,7.73-1.78,2.34-.74,4.49-1.58,6.43-2.52,1.94-.94,3.79-1.91,5.55-2.89v15.46c-2.22.93-4.46,1.76-6.71,2.5Z"/>
    <path class="st0" d="M374.24,65.22v-16.66h17.54v16.66h-17.54Z"/>
    <path class="st0" d="M406.51,65.22V1.62h17.17v63.6h-17.17Z"/>
    <path class="st0" d="M479.22,15.46v49.76h-17.17V15.46h-26.99V1.62h71.19v13.84h-27.03Z"/>
  </g>
  <g>
    <path class="st1" d="M30.98,102.62c0,1.82-.19,3.43-.57,4.84-.38,1.41-.91,2.64-1.6,3.69-.69,1.05-1.53,1.93-2.51,2.66-.98.73-2.08,1.32-3.28,1.76-1.21.44-2.51.76-3.92.96-1.41.2-2.9.3-4.45.3H0v-28.38h14.6c2.33,0,4.49.23,6.49.68,2,.45,3.73,1.23,5.19,2.32s2.62,2.55,3.45,4.37c.83,1.82,1.25,4.08,1.25,6.8ZM28.34,102.63c0-1.54-.15-2.91-.45-4.09-.3-1.18-.74-2.21-1.3-3.09-.57-.88-1.25-1.61-2.07-2.2-.81-.59-1.73-1.07-2.75-1.44-1.02-.37-2.13-.62-3.33-.78-1.2-.15-2.47-.23-3.82-.23H2.58v23.67h12.03c2.03,0,3.88-.18,5.56-.55,1.68-.37,3.12-1,4.33-1.9,1.21-.9,2.15-2.12,2.82-3.64.68-1.52,1.01-3.44,1.01-5.76Z"/>
    <path class="st1" d="M38.5,116.83v-28.38h2.58v28.38h-2.58Z"/>
    <path class="st1" d="M67.35,87.93c1.31,0,2.53.07,3.66.2,1.13.13,2.21.32,3.24.56,1.03.24,2.04.53,3.02.87.98.34,1.96.71,2.95,1.13v3.14c-.79-.5-1.62-.96-2.51-1.4-.89-.44-1.85-.83-2.87-1.16-1.03-.33-2.13-.59-3.31-.78-1.18-.19-2.44-.29-3.79-.29-2.76,0-5.16.29-7.21.87s-3.76,1.4-5.13,2.48-2.39,2.38-3.07,3.92c-.68,1.54-1.02,3.28-1.02,5.21,0,1.8.33,3.47,1,4.99s1.68,2.83,3.04,3.93c1.36,1.1,3.06,1.96,5.1,2.58,2.04.62,4.43.93,7.17.93,1.07,0,2.14-.04,3.19-.12,1.05-.08,2.05-.19,2.99-.32.94-.13,1.79-.28,2.56-.43.77-.16,1.43-.32,1.96-.49v-8.61h-11.55v-2.42h14.13v12.48c-1.02.36-2.05.67-3.09.95-1.04.28-2.11.51-3.22.69-1.11.19-2.26.33-3.45.42-1.19.1-2.44.14-3.75.14-2.67,0-5.15-.3-7.44-.9-2.29-.6-4.27-1.51-5.94-2.73-1.67-1.22-2.98-2.75-3.93-4.6-.95-1.84-1.43-4.01-1.43-6.51,0-1.67.22-3.18.66-4.55.44-1.37,1.06-2.6,1.87-3.7.81-1.09,1.78-2.05,2.91-2.86,1.14-.81,2.4-1.48,3.78-2.01,1.38-.53,2.87-.93,4.47-1.2s3.26-.4,5-.4Z"/>
    <path class="st1" d="M89.14,116.83v-28.38h2.58v28.38h-2.58Z"/>
    <path class="st1" d="M112.79,90.8v26.02h-2.56v-26.02h-12.91v-2.35h28.38v2.35h-12.91Z"/>
    <path class="st1" d="M156.97,116.83v-3.14c-.99.54-2.12,1.03-3.38,1.49-1.26.45-2.59.85-3.99,1.18-1.4.33-2.83.58-4.31.76-1.47.18-2.92.27-4.34.27-1.85,0-3.5-.17-4.97-.5-1.47-.33-2.71-.82-3.73-1.48-1.02-.65-1.8-1.47-2.35-2.44-.55-.97-.83-2.1-.83-3.38s.32-2.39.96-3.36c.64-.97,1.55-1.82,2.74-2.54s2.61-1.33,4.29-1.84c1.67-.5,3.54-.93,5.61-1.28,2.07-.35,4.3-.64,6.7-.87,2.4-.23,4.93-.42,7.59-.57v-2.17c0-.88-.17-1.66-.5-2.33s-.79-1.26-1.38-1.77c-.59-.5-1.29-.92-2.09-1.26-.8-.34-1.66-.61-2.59-.82-.93-.21-1.91-.35-2.93-.44-1.03-.09-2.06-.13-3.09-.13-1.39,0-2.66.07-3.8.21-1.14.14-2.21.33-3.2.57s-1.94.52-2.85.84c-.91.32-1.82.65-2.75,1.01v-3.02c1.91-.51,3.96-.95,6.12-1.33,2.17-.38,4.47-.57,6.91-.57,2.07,0,3.99.18,5.78.53,1.79.35,3.35.91,4.67,1.68,1.32.77,2.36,1.77,3.12,2.98.76,1.22,1.14,2.7,1.14,4.45v19.25h-2.56ZM156.97,101.44c-4.51.25-8.35.6-11.54,1.05-3.19.45-5.8,1.01-7.82,1.67s-3.51,1.43-4.46,2.31c-.94.88-1.42,1.88-1.42,3,0,.91.23,1.71.69,2.42.46.7,1.13,1.29,2,1.77.87.48,1.92.83,3.16,1.07,1.24.24,2.63.36,4.18.36.91,0,1.85-.05,2.82-.15.97-.1,1.94-.25,2.9-.43.96-.19,1.92-.41,2.85-.66s1.82-.53,2.65-.84c.83-.3,1.58-.63,2.26-.97.68-.34,1.26-.7,1.73-1.05v-9.54Z"/>
    <path class="st1" d="M171.43,107.02c0,1.28.1,2.38.31,3.3s.64,1.68,1.3,2.27c.66.59,1.61,1.03,2.86,1.31,1.25.28,2.9.42,4.97.42h12.83v2.5h-13.34c-2.27,0-4.15-.18-5.63-.55-1.48-.37-2.66-.93-3.53-1.69-.87-.76-1.48-1.73-1.83-2.9-.34-1.17-.52-2.56-.52-4.17v-19.06h2.58v18.57Z"/>
    <path class="st1" d="M237.71,92.64c-.54-.26-1.16-.54-1.86-.84-.7-.3-1.51-.56-2.41-.8-.9-.23-1.92-.43-3.05-.59-1.13-.16-2.38-.24-3.76-.24-1.67,0-3.15.1-4.46.29-1.3.19-2.41.49-3.31.9-.9.41-1.59.92-2.07,1.54-.48.62-.71,1.36-.71,2.21,0,.72.22,1.34.67,1.88.45.54,1.05,1.01,1.82,1.42s1.66.79,2.69,1.13c1.03.34,2.11.65,3.27.95s2.34.6,3.56.9,2.4.63,3.56.98c1.15.35,2.24.74,3.27,1.18s1.92.94,2.69,1.52c.76.58,1.37,1.24,1.82,1.98.45.74.67,1.6.67,2.58,0,1.06-.2,1.99-.6,2.78-.4.79-.94,1.47-1.62,2.04-.68.57-1.48,1.05-2.4,1.43-.92.38-1.89.68-2.93.9-1.04.22-2.11.38-3.22.46-1.11.09-2.2.13-3.27.13-2.46,0-4.7-.18-6.7-.54-2-.36-3.91-.85-5.73-1.47v-3.16c1.87,1.12,3.85,1.88,5.94,2.29,2.09.41,4.28.62,6.58.62,1.62,0,3.13-.1,4.5-.29,1.38-.19,2.57-.5,3.57-.92,1-.42,1.79-.97,2.34-1.64s.84-1.5.84-2.48c0-.79-.22-1.47-.67-2.07-.45-.59-1.05-1.11-1.82-1.56-.76-.45-1.66-.84-2.69-1.19-1.03-.34-2.11-.66-3.25-.96-1.14-.3-2.32-.59-3.54-.87-1.22-.28-2.4-.59-3.54-.92s-2.23-.7-3.25-1.12c-1.03-.41-1.92-.9-2.69-1.46s-1.37-1.2-1.82-1.93c-.45-.73-.67-1.58-.67-2.54s.18-1.79.54-2.53c.36-.74.85-1.37,1.48-1.91s1.36-.99,2.2-1.35c.84-.36,1.74-.65,2.7-.87.96-.21,1.95-.37,2.98-.46,1.03-.1,2.05-.14,3.06-.14,1.1,0,2.14.05,3.13.14.98.1,1.93.22,2.85.38.92.16,1.81.34,2.69.55.87.21,1.76.43,2.65.66v2.97Z"/>
    <path class="st1" d="M282.12,102.66c0,2.55-.46,4.75-1.38,6.6-.92,1.85-2.19,3.38-3.8,4.58-1.61,1.21-3.51,2.1-5.7,2.67-2.19.58-4.55.87-7.08.87s-4.92-.29-7.12-.87c-2.2-.58-4.12-1.47-5.74-2.67-1.62-1.21-2.9-2.73-3.82-4.58-.92-1.85-1.38-4.05-1.38-6.6,0-1.69.21-3.23.64-4.62s1.03-2.62,1.8-3.72c.77-1.09,1.7-2.04,2.8-2.84,1.09-.8,2.31-1.46,3.65-1.99s2.78-.92,4.33-1.18c1.54-.25,3.16-.38,4.85-.38,2.53,0,4.89.29,7.08.87,2.19.58,4.09,1.47,5.7,2.67,1.61,1.21,2.88,2.73,3.8,4.59.92,1.85,1.38,4.05,1.38,6.6ZM279.47,102.66c0-2.01-.33-3.79-.98-5.33-.65-1.54-1.62-2.84-2.9-3.89-1.28-1.05-2.88-1.85-4.79-2.4s-4.12-.82-6.64-.82-4.74.28-6.67.83-3.53,1.35-4.83,2.41c-1.3,1.05-2.27,2.35-2.93,3.9-.66,1.55-.99,3.32-.99,5.3s.33,3.79.99,5.33c.66,1.54,1.64,2.84,2.93,3.89,1.3,1.05,2.9,1.85,4.83,2.4s4.14.82,6.67.82,4.74-.27,6.64-.82,3.5-1.34,4.79-2.4c1.28-1.05,2.25-2.35,2.9-3.89s.98-3.32.98-5.33Z"/>
    <path class="st1" d="M292.28,107.02c0,1.28.1,2.38.31,3.3.21.92.64,1.68,1.3,2.27.66.59,1.61,1.03,2.86,1.31s2.9.42,4.97.42h12.83v2.5h-13.34c-2.27,0-4.15-.18-5.63-.55-1.48-.37-2.66-.93-3.53-1.69-.87-.76-1.48-1.73-1.83-2.9-.34-1.17-.52-2.56-.52-4.17v-19.06h2.58v18.57Z"/>
    <path class="st1" d="M322.25,88.45v18.73c-.01,1.58.19,2.88.6,3.9.41,1.02,1.01,1.82,1.78,2.41.78.59,1.72.99,2.82,1.22s2.35.34,3.74.34c1.61,0,3.18-.2,4.72-.59,1.54-.39,2.99-.89,4.35-1.49,1.36-.6,2.61-1.26,3.74-1.99,1.13-.73,2.1-1.43,2.9-2.11v-20.43h2.64v28.38h-2.64v-5c-.96.62-2.02,1.26-3.16,1.93-1.14.67-2.38,1.28-3.7,1.84s-2.75,1.02-4.26,1.37c-1.51.36-3.12.54-4.81.54-1.91,0-3.58-.24-5-.72-1.42-.48-2.61-1.16-3.55-2.02s-1.65-1.9-2.12-3.09c-.47-1.19-.7-2.5-.7-3.93v-19.29h2.64Z"/>
    <path class="st1" d="M370.62,90.8v26.02h-2.56v-26.02h-12.91v-2.35h28.38v2.35h-12.91Z"/>
    <path class="st1" d="M389.11,116.83v-28.38h2.58v28.38h-2.58Z"/>
    <path class="st1" d="M435.29,102.66c0,2.55-.46,4.75-1.38,6.6-.92,1.85-2.19,3.38-3.8,4.58s-3.51,2.1-5.7,2.67-4.55.87-7.08.87-4.92-.29-7.12-.87-4.11-1.47-5.74-2.67-2.9-2.73-3.82-4.58c-.92-1.85-1.38-4.05-1.38-6.6,0-1.69.21-3.23.64-4.62.43-1.38,1.02-2.62,1.8-3.72.77-1.09,1.7-2.04,2.8-2.84s2.31-1.46,3.65-1.99,2.78-.92,4.32-1.18c1.54-.25,3.16-.38,4.85-.38,2.53,0,4.89.29,7.08.87,2.19.58,4.09,1.47,5.7,2.67,1.61,1.21,2.88,2.73,3.8,4.59.92,1.85,1.38,4.05,1.38,6.6ZM432.65,102.66c0-2.01-.33-3.79-.98-5.33-.65-1.54-1.62-2.84-2.9-3.89-1.28-1.05-2.88-1.85-4.79-2.4s-4.12-.82-6.64-.82-4.74.28-6.67.83c-1.92.55-3.53,1.35-4.83,2.41-1.3,1.05-2.27,2.35-2.94,3.9s-.99,3.32-.99,5.3.33,3.79.99,5.33,1.64,2.84,2.94,3.89c1.29,1.05,2.9,1.85,4.83,2.4,1.92.54,4.14.82,6.67.82s4.74-.27,6.64-.82,3.5-1.34,4.79-2.4c1.28-1.05,2.25-2.35,2.9-3.89.66-1.54.98-3.32.98-5.33Z"/>
    <path class="st1" d="M470.34,116.83v-18.73c0-1.57-.21-2.86-.63-3.87-.42-1.01-1.02-1.81-1.8-2.41-.78-.59-1.72-1-2.84-1.24-1.12-.23-2.37-.35-3.76-.35-1.61,0-3.19.2-4.74.59-1.55.39-3.01.89-4.39,1.49-1.38.6-2.64,1.26-3.8,1.99-1.16.73-2.13,1.43-2.93,2.11v20.43h-2.58v-28.38h2.58v4.98c.96-.61,2.03-1.24,3.19-1.91,1.16-.67,2.42-1.28,3.76-1.84,1.34-.56,2.78-1.01,4.31-1.37s3.14-.54,4.83-.54c1.91,0,3.58.23,5.01.69,1.42.46,2.61,1.12,3.55,1.96s1.65,1.87,2.12,3.08c.47,1.21.7,2.55.7,4.04v19.29h-2.58Z"/>
    <path class="st1" d="M505.27,92.64c-.54-.26-1.16-.54-1.86-.84-.7-.3-1.51-.56-2.41-.8-.9-.23-1.92-.43-3.05-.59-1.13-.16-2.38-.24-3.76-.24-1.67,0-3.15.1-4.46.29-1.3.19-2.41.49-3.31.9-.9.41-1.59.92-2.07,1.54-.48.62-.71,1.36-.71,2.21,0,.72.22,1.34.67,1.88s1.05,1.01,1.82,1.42,1.66.79,2.69,1.13c1.03.34,2.12.65,3.27.95,1.15.3,2.34.6,3.56.9s2.41.63,3.56.98c1.15.35,2.24.74,3.27,1.18,1.03.43,1.92.94,2.69,1.52.76.58,1.37,1.24,1.82,1.98.45.74.67,1.6.67,2.58,0,1.06-.2,1.99-.6,2.78-.4.79-.94,1.47-1.62,2.04-.68.57-1.48,1.05-2.4,1.43-.92.38-1.89.68-2.93.9-1.04.22-2.11.38-3.22.46-1.11.09-2.2.13-3.27.13-2.46,0-4.7-.18-6.7-.54-2-.36-3.91-.85-5.73-1.47v-3.16c1.87,1.12,3.85,1.88,5.94,2.29s4.28.62,6.58.62c1.62,0,3.13-.1,4.5-.29,1.38-.19,2.57-.5,3.57-.92,1-.42,1.79-.97,2.34-1.64s.84-1.5.84-2.48c0-.79-.22-1.47-.67-2.07s-1.05-1.11-1.82-1.56c-.76-.45-1.66-.84-2.68-1.19-1.03-.34-2.11-.66-3.25-.96-1.14-.3-2.32-.59-3.54-.87s-2.4-.59-3.54-.92-2.23-.7-3.25-1.12c-1.03-.41-1.92-.9-2.69-1.46-.76-.56-1.37-1.2-1.82-1.93-.45-.73-.67-1.58-.67-2.54s.18-1.79.54-2.53c.36-.74.85-1.37,1.48-1.91.63-.54,1.36-.99,2.2-1.35.84-.36,1.74-.65,2.7-.87.96-.21,1.95-.37,2.98-.46,1.03-.1,2.05-.14,3.06-.14,1.1,0,2.14.05,3.13.14.98.1,1.93.22,2.85.38.92.16,1.81.34,2.68.55.88.21,1.76.43,2.65.66v2.97Z"/>
  </g>
</svg>